<svg width="19" height="18" viewBox="0 0 19 18" fill="none" xmlns="http://www.w3.org/2000/svg">
<path d="M16.125 15.27C16.125 15.48 16.0525 15.6575 15.9075 15.8025C15.7625 15.9475 15.585 16.02 15.375 16.02H3.375C3.165 16.02 2.9875 15.9475 2.8425 15.8025C2.6975 15.6575 2.625 15.48 2.625 15.27V7.39502C2.625 7.14502 2.72 6.94502 2.91 6.79502L8.91 2.13002C9.05 2.03002 9.205 1.98002 9.375 1.98002C9.545 1.98002 9.7 2.03002 9.84 2.13002L15.84 6.79502C16.03 6.94502 16.125 7.14502 16.125 7.39502V15.27ZM14.625 14.52V7.75502L9.375 3.67502L4.125 7.75502V14.52H14.625Z" fill="#6B7280"/>
</svg>
