<svg width="16" height="16" viewBox="0 0 16 16" fill="none" xmlns="http://www.w3.org/2000/svg">
<g clip-path="url(#clip0_621_2353)">
<path d="M15.2813 1.13317C15.0568 0.944993 14.7935 0.8087 14.5103 0.734024C14.227 0.659348 13.9308 0.648131 13.6427 0.701173L9.52267 1.44984C8.9331 1.55614 8.39663 1.8582 8 2.30717C7.60367 1.85746 7.06716 1.55468 6.47733 1.44784L2.35733 0.699173C2.06918 0.646847 1.77305 0.658444 1.48987 0.733144C1.20669 0.807844 0.943372 0.943824 0.718521 1.13148C0.49367 1.31913 0.312775 1.55387 0.188618 1.81912C0.0644604 2.08436 7.11635e-05 2.37364 0 2.66651L0 13.8892L8 15.3445L16 13.8892V2.66651C16 2.37385 15.9357 2.08478 15.8115 1.81979C15.6873 1.5548 15.5063 1.32038 15.2813 1.13317ZM7.33333 13.8665L1.33333 12.7772V2.66651C1.33342 2.5689 1.35493 2.4725 1.39636 2.38412C1.43779 2.29574 1.49811 2.21754 1.57308 2.15503C1.64805 2.09253 1.73583 2.04725 1.83022 2.02239C1.92461 1.99753 2.0233 1.9937 2.11933 2.01117L6.23867 2.75984C6.54588 2.81573 6.82374 2.97768 7.02378 3.21745C7.22383 3.45721 7.33338 3.75958 7.33333 4.07184V13.8665ZM14.6667 12.7758L8.66667 13.8665V4.07184C8.66662 3.75958 8.77617 3.45721 8.97622 3.21745C9.17626 2.97768 9.45412 2.81573 9.76133 2.75984L13.8807 2.01117C13.9767 1.9937 14.0754 1.99753 14.1698 2.02239C14.2642 2.04725 14.352 2.09253 14.4269 2.15503C14.5019 2.21754 14.5622 2.29574 14.6036 2.38412C14.6451 2.4725 14.6666 2.5689 14.6667 2.66651V12.7758Z" fill="#6B7280"/>
</g>
<defs>
<clipPath id="clip0_621_2353">
<rect width="16" height="16" fill="white"/>
</clipPath>
</defs>
</svg>
